<svg width="473" height="378" viewBox="0 0 473 378" fill="none" xmlns="http://www.w3.org/2000/svg">
<path d="M256.904 120.896C264.207 120.896 270.127 126.816 270.127 134.119C270.127 141.422 264.207 147.342 256.904 147.342H377.801C385.103 147.343 391.023 153.262 391.023 160.565C391.023 167.868 385.103 173.787 377.801 173.788H419.358C426.661 173.788 432.581 179.708 432.581 187.011C432.581 194.314 426.661 200.234 419.358 200.234H383.468C376.165 200.234 370.244 206.154 370.244 213.457C370.244 220.759 376.165 226.68 383.468 226.68H394.802C402.104 226.68 408.024 232.6 408.024 239.903C408.024 247.206 402.104 253.126 394.802 253.126H296.573C295.601 253.126 294.653 253.021 293.74 252.822C292.827 253.021 291.879 253.126 290.906 253.126H119.007C111.704 253.126 105.784 247.206 105.784 239.903C105.784 232.6 111.704 226.68 119.007 226.68H45.3359C38.0332 226.68 32.1133 220.759 32.1133 213.457C32.1135 206.154 38.0334 200.234 45.3359 200.234H120.896C128.199 200.234 134.119 194.314 134.119 187.011C134.119 179.708 128.199 173.788 120.896 173.788H73.6709C66.3682 173.787 60.4482 167.868 60.4482 160.565C60.4483 153.262 66.3682 147.342 73.6709 147.342H149.231C141.929 147.342 136.008 141.422 136.008 134.119C136.008 126.816 141.929 120.896 149.231 120.896H256.904ZM426.914 226.68C434.217 226.68 440.138 232.6 440.138 239.903C440.138 247.206 434.217 253.126 426.914 253.126C419.611 253.126 413.691 247.206 413.691 239.903C413.692 232.6 419.611 226.68 426.914 226.68Z" fill="#090909"/>
<path d="M325.853 85.005V96.339" stroke="#090909" stroke-width="4.7225" stroke-linecap="round" stroke-linejoin="round"/>
<path d="M325.853 111.451V122.785" stroke="#090909" stroke-width="4.7225" stroke-linecap="round" stroke-linejoin="round"/>
<path d="M306.963 103.895H318.297" stroke="#090909" stroke-width="4.7225" stroke-linecap="round" stroke-linejoin="round"/>
<path d="M333.409 103.895H344.743" stroke="#090909" stroke-width="4.7225" stroke-linecap="round" stroke-linejoin="round"/>
<path d="M169.066 279.572V287.128" stroke="#090909" stroke-width="4.7225" stroke-linecap="round" stroke-linejoin="round"/>
<path d="M169.066 302.24V309.796" stroke="#090909" stroke-width="4.7225" stroke-linecap="round" stroke-linejoin="round"/>
<path d="M153.953 294.684H161.509" stroke="#090909" stroke-width="4.7225" stroke-linecap="round" stroke-linejoin="round"/>
<path d="M176.621 294.684H184.177" stroke="#090909" stroke-width="4.7225" stroke-linecap="round" stroke-linejoin="round"/>
<path fill-rule="evenodd" clip-rule="evenodd" d="M303.584 247.698C306.211 244.48 308.573 241.116 310.668 237.634C315.277 229.975 318.598 221.747 320.629 213.263C322.682 204.684 323.414 195.843 322.82 187.067C322.301 179.409 320.773 171.8 318.231 164.456C315.71 157.17 312.191 150.145 307.672 143.592C304.979 139.688 301.931 135.951 298.526 132.426C293.528 127.251 288.046 122.826 282.221 119.156C275.962 115.212 269.307 112.137 262.432 109.937C253.823 107.181 244.867 105.794 235.91 105.784C228.941 105.776 221.971 106.602 215.162 108.263C207.497 110.134 200.037 113.065 193.012 117.06C186.837 120.572 180.999 124.906 175.655 130.066C168.939 136.551 163.499 143.861 159.34 151.684C155.268 159.343 152.424 167.494 150.812 175.845C149.151 184.448 148.798 193.262 149.758 201.968C151.003 213.251 154.453 224.352 160.12 234.573C163.747 241.113 168.28 247.293 173.725 252.93C182.368 261.879 192.458 268.583 203.265 273.027C216.408 278.432 230.611 280.496 244.559 279.194C256.266 278.101 267.794 274.637 278.365 268.786" fill="white"/>
<path d="M303.584 247.698C306.211 244.48 308.573 241.116 310.668 237.634C315.277 229.975 318.598 221.747 320.629 213.263C322.682 204.684 323.414 195.843 322.82 187.067C322.301 179.409 320.773 171.8 318.231 164.456C315.71 157.17 312.191 150.145 307.672 143.592C304.979 139.688 301.931 135.951 298.526 132.426C293.528 127.251 288.046 122.826 282.221 119.156C275.962 115.212 269.307 112.137 262.432 109.937C253.823 107.181 244.867 105.794 235.91 105.784C228.941 105.776 221.971 106.602 215.162 108.263C207.497 110.134 200.037 113.065 193.012 117.06C186.837 120.572 180.999 124.906 175.655 130.066C168.939 136.551 163.499 143.861 159.34 151.684C155.268 159.343 152.424 167.494 150.812 175.845C149.151 184.448 148.798 193.262 149.758 201.968C151.003 213.251 154.453 224.352 160.12 234.573C163.747 241.113 168.28 247.293 173.725 252.93C182.368 261.879 192.458 268.583 203.265 273.027C216.408 278.432 230.611 280.496 244.559 279.194C256.266 278.101 267.794 274.637 278.365 268.786" stroke="#090909" stroke-width="4.7225" stroke-linecap="round" stroke-linejoin="round"/>
<path fill-rule="evenodd" clip-rule="evenodd" d="M284.676 265.174C290.165 261.642 295.046 257.234 298.221 253.676L284.676 265.174Z" fill="white"/>
<path d="M284.676 265.174C290.165 261.642 295.046 257.234 298.221 253.676" stroke="#090909" stroke-width="4.7225" stroke-linecap="round"/>
<path d="M315.463 197.622C314.923 197.631 314.381 197.636 313.839 197.636C266.135 197.636 227.074 160.445 223.801 113.34C185.831 119.329 156.787 152.353 156.787 192.193C156.787 236.278 192.348 272.016 236.215 272.016C278.267 272.016 312.686 239.175 315.463 197.622Z" fill="#767680" fill-opacity="0.12"/>
<path fill-rule="evenodd" clip-rule="evenodd" d="M205.945 189.604C203.634 187.471 200.05 187.634 197.939 189.97C195.828 192.306 195.99 195.93 198.301 198.064L224.972 222.692C228.207 225.68 233.225 225.45 236.18 222.18C236.304 222.041 236.304 222.041 236.423 221.898L274.484 175.623C276.485 173.191 276.157 169.579 273.75 167.556C271.343 165.533 267.77 165.865 265.769 168.298L229.986 211.804L205.945 189.604Z" fill="white" stroke="#090909" stroke-width="4.7225" stroke-linecap="round"/>
<path fill-rule="evenodd" clip-rule="evenodd" d="M209.346 121.676C205.662 123.058 202.064 124.738 198.587 126.715C193.185 129.788 188.078 133.58 183.403 138.095C181.486 139.946 179.689 141.873 178.01 143.868M172.815 150.814C171.48 152.831 170.252 154.899 169.13 157.009C168.301 158.568 167.531 160.15 166.818 161.752" fill="white"/>
<path d="M210.176 123.887C211.397 123.429 212.015 122.068 211.557 120.847C211.099 119.626 209.738 119.007 208.517 119.466L209.346 121.676L210.176 123.887ZM198.587 126.715L199.755 128.768L198.587 126.715ZM183.403 138.095L181.762 136.397L183.403 138.095ZM176.203 142.348C175.363 143.346 175.492 144.835 176.489 145.675C177.487 146.515 178.977 146.386 179.816 145.389L178.01 143.868L176.203 142.348ZM174.784 152.117C175.504 151.029 175.206 149.564 174.118 148.845C173.031 148.125 171.566 148.423 170.846 149.511L172.815 150.814L174.784 152.117ZM169.13 157.009L167.045 155.901L167.045 155.901L169.13 157.009ZM164.661 160.793C164.131 161.984 164.668 163.38 165.859 163.91C167.051 164.44 168.446 163.903 168.976 162.712L166.818 161.752L164.661 160.793ZM209.346 121.676L208.517 119.466C204.717 120.891 201.006 122.623 197.42 124.663L198.587 126.715L199.755 128.768C203.122 126.852 206.607 125.226 210.176 123.887L209.346 121.676ZM198.587 126.715L197.42 124.663C191.847 127.832 186.581 131.743 181.762 136.397L183.403 138.095L185.043 139.794C189.575 135.417 194.523 131.744 199.755 128.768L198.587 126.715ZM183.403 138.095L181.762 136.397C179.787 138.304 177.934 140.291 176.203 142.348L178.01 143.868L179.816 145.389C181.443 143.456 183.185 141.588 185.043 139.794L183.403 138.095ZM172.815 150.814L170.846 149.511C169.469 151.591 168.202 153.724 167.045 155.901L169.13 157.009L171.215 158.118C172.302 156.073 173.491 154.071 174.784 152.117L172.815 150.814ZM169.13 157.009L167.045 155.901C166.19 157.509 165.396 159.14 164.661 160.793L166.818 161.752L168.976 162.712C169.666 161.16 170.412 159.627 171.215 158.118L169.13 157.009Z" fill="#090909"/>
</svg>
