<svg width="62" height="48" viewBox="0 0 62 48" fill="none" xmlns="http://www.w3.org/2000/svg">
<path d="M59.6103 41.3194C54.3046 42.792 48.6204 41.4528 42.2249 37.2194C39.8482 35.693 37.5414 34.0017 35.0997 32.2102C31.2839 29.4119 27.3381 26.5178 22.9075 24.1321C16.1583 20.3385 8.24461 18.4112 0.626494 18.7108L0 18.7355V27.403L0.729776 27.3159C6.94709 26.5746 13.3673 27.8274 19.3044 30.9463C23.4375 33.0337 27.3004 35.8444 31.0359 38.563C34.9804 41.433 39.0591 44.4012 43.5552 46.6152C45.4279 47.5375 47.282 48.0002 49.13 48.0002C52.8314 48.0002 56.5063 46.1433 60.2461 42.4078L62 40.6559L59.6103 41.3194Z" fill="white"/>
<path d="M13.3923 8.2542L13.7028 8.25235C14.8822 8.24864 16.189 8.24246 17.5552 8.23628C21.3791 8.21775 25.7132 8.19737 28.9836 8.22455L30.8711 8.23814C32.1272 8.26902 33.3245 8.60507 34.3456 9.21601C36.4477 10.4237 37.7118 12.7204 37.645 15.2105C37.5795 17.6358 36.2869 19.7169 34.1866 20.777L33.207 21.2718L34.1099 21.8951C35.9777 23.183 37.7576 24.4846 39.5703 25.8171L39.8745 26.0401C40.0118 26.1414 40.1491 26.2415 40.2858 26.3409L40.7224 26.6572L41.1152 26.2878C41.5048 25.9215 41.8858 25.5175 42.2809 25.0517C45.7981 20.94 46.7845 15.3977 44.9205 10.2254C43.0682 5.08583 38.799 1.46651 33.5205 0.547315C32.3294 0.300838 30.7802 0.308868 29.5359 0.314428C29.3466 0.315663 29.1635 0.316281 28.9904 0.316281C26.6879 0.308251 24.3136 0.311957 22.0185 0.315046C14.9744 0.326165 7.69082 0.335431 0.682505 0.0302691L0.00158691 0V8.53403L0.684978 8.50129C4.91149 8.29868 9.22273 8.27582 13.3917 8.2542H13.3923Z" fill="white"/>
<path d="M14.3908 40.9962C10.9677 41.9661 8.25388 44.618 7.19756 48.0008C6.14124 44.6186 3.42746 41.9667 0.000610352 40.9962C3.42746 40.0227 6.14186 37.3707 7.19756 33.988C8.25388 37.3701 10.9683 40.0227 14.3908 40.9962Z" fill="white"/>
</svg>
