<svg width="40" height="31" viewBox="0 0 40 31" fill="none" xmlns="http://www.w3.org/2000/svg">
<path d="M38.4583 26.6853C35.0352 27.6364 31.368 26.7715 27.2419 24.0374C25.7085 23.0516 24.2202 21.9593 22.645 20.8023C20.1831 18.995 17.6375 17.1259 14.7791 15.5852C10.4247 13.1352 5.3191 11.8904 0.40419 12.0839L0 12.0999V17.6976L0.470823 17.6414C4.482 17.1626 8.62404 17.9717 12.4545 19.986C15.121 21.3341 17.6132 23.1494 20.0231 24.9052C22.568 26.7587 25.1994 28.6757 28.1002 30.1055C29.3083 30.7012 30.5045 31 31.6968 31C34.0848 31 36.4557 29.8007 38.8684 27.3883L40 26.2568L38.4583 26.6853Z" fill="#231F20"/>
<path d="M8.6392 5.33084L8.8395 5.32964C9.6004 5.32725 10.4435 5.32326 11.3249 5.31927C13.7919 5.3073 16.5881 5.29413 18.6981 5.31169L19.9158 5.32046C20.7262 5.34041 21.4987 5.55744 22.1574 5.95201C23.5136 6.73197 24.3292 8.21528 24.2861 9.82347C24.2438 11.3898 23.4099 12.7338 22.0549 13.4185L21.4228 13.738L22.0054 14.1406C23.2104 14.9724 24.3587 15.813 25.5282 16.6735L25.7245 16.8175C25.8131 16.883 25.9016 16.9476 25.9898 17.0118L26.2715 17.2161L26.5249 16.9775C26.7763 16.7409 27.022 16.48 27.277 16.1792C29.5461 13.5238 30.1825 9.94435 28.98 6.6039C27.7849 3.2846 25.0306 0.947119 21.6251 0.353474C20.8567 0.194291 19.8572 0.199477 19.0544 0.203068C18.9323 0.203866 18.8142 0.204265 18.7024 0.204265C17.217 0.199079 15.6852 0.201472 14.2045 0.203467C9.65985 0.210648 4.9608 0.216633 0.439302 0.0195488L0 0V5.51156L0.440898 5.49042C3.16768 5.35956 5.94913 5.3448 8.6388 5.33084H8.6392Z" fill="#231F20"/>
<path d="M9.28399 26.4766C7.07551 27.103 5.32469 28.8157 4.64319 31.0004C3.9617 28.8161 2.21087 27.1034 0 26.4766C2.21087 25.8479 3.96209 24.1352 4.64319 21.9505C5.32469 24.1348 7.07591 25.8479 9.28399 26.4766Z" fill="#231F20"/>
</svg>
