<svg width="29" height="30" viewBox="0 0 29 30" fill="none" xmlns="http://www.w3.org/2000/svg">
<path d="M13.7514 0.219107C14.1032 -0.0730357 14.6162 -0.0730357 14.9682 0.219107C18.4482 3.10875 22.8527 4.92356 27.6724 5.15427C28.1056 5.17501 28.4755 5.48792 28.5324 5.91789C28.6558 6.85102 28.7195 7.80297 28.7195 8.76979C28.7195 18.0362 22.8682 25.936 14.6588 28.9757C14.4662 29.0469 14.2539 29.0469 14.0614 28.9757C5.85168 25.9361 0 18.0362 0 8.76956C0 7.80286 0.0636991 6.85095 0.187115 5.9179C0.243981 5.48792 0.613914 5.17501 1.04714 5.15427C5.86686 4.92356 10.2714 3.10875 13.7514 0.219107ZM21.2822 10.9074C21.7195 10.3061 21.5866 9.46411 20.9852 9.02681C20.3839 8.58951 19.542 8.72245 19.1047 9.32376L12.8514 17.9219L9.47802 14.5486C8.95232 14.0228 8.09993 14.0228 7.57418 14.5486C7.04846 15.0743 7.04846 15.9267 7.57418 16.4524L12.0617 20.9398C12.34 21.2183 12.7264 21.3608 13.1189 21.33C13.5113 21.2992 13.8708 21.0981 14.1023 20.7797L21.2822 10.9074Z" fill="#00A63E"/>
</svg>
