<svg width="208" height="208" viewBox="0 0 208 208" fill="none" xmlns="http://www.w3.org/2000/svg">
<g clip-path="url(#clip0_378_15379)">
<path fill-rule="evenodd" clip-rule="evenodd" d="M104 0C76.4175 0 49.9647 10.9571 30.4609 30.4609C10.9571 49.9647 0 76.4175 0 104C0 131.583 10.9571 158.035 30.4609 177.539C49.9647 197.043 76.4175 208 104 208C131.583 208 158.035 197.043 177.539 177.539C197.043 158.035 208 131.583 208 104C208 76.4175 197.043 49.9647 177.539 30.4609C158.035 10.9571 131.583 0 104 0ZM82.342 43.3333C82.7801 43.3489 83.2032 43.497 83.5553 43.758L103.055 57.9323L122.443 43.8317C122.819 43.559 123.273 43.4147 123.738 43.42C124.03 43.4247 124.317 43.488 124.583 43.6063L170.023 63.3403C170.373 63.492 170.678 63.7336 170.905 64.0408C171.132 64.348 171.274 64.7098 171.316 65.0894C171.358 65.4691 171.299 65.8532 171.145 66.2028C170.991 66.5524 170.747 66.855 170.439 67.08L152.156 80.3703C152.162 80.3847 152.168 80.3992 152.174 80.4137C152.18 80.428 152.185 80.4425 152.191 80.457L172.445 95.1817C172.752 95.4071 172.993 95.7093 173.146 96.0579C173.299 96.4065 173.357 96.7891 173.315 97.1673C173.273 97.5456 173.132 97.906 172.906 98.2124C172.68 98.5188 172.378 98.7603 172.029 98.9127L151.667 107.757V139.698C151.668 139.864 151.651 140.03 151.615 140.192C151.731 140.694 151.664 141.221 151.427 141.679C151.189 142.136 150.797 142.494 150.319 142.688L104.888 162.075C104.86 162.09 104.831 162.105 104.802 162.119C104.736 162.145 104.67 162.168 104.602 162.188C104.549 162.204 104.496 162.219 104.442 162.231C104.425 162.232 104.407 162.232 104.39 162.231C104.378 162.231 104.367 162.231 104.355 162.231C104.294 162.249 104.232 162.263 104.169 162.275C104.028 162.289 103.886 162.289 103.744 162.275C103.74 162.275 103.736 162.275 103.731 162.275C103.717 162.275 103.702 162.275 103.688 162.275C103.63 162.263 103.572 162.248 103.515 162.231C103.487 162.217 103.459 162.203 103.432 162.188C103.412 162.188 103.392 162.188 103.372 162.188C103.28 162.165 103.191 162.136 103.103 162.101L57.681 142.714C57.2035 142.521 56.8104 142.164 56.5722 141.708C56.334 141.251 56.2662 140.724 56.381 140.222C56.3459 140.059 56.3299 139.891 56.3333 139.724V107.969L35.9667 99.125C35.6163 98.9729 35.3124 98.7309 35.0857 98.4235C34.859 98.1161 34.7176 97.7543 34.6758 97.3746C34.634 96.995 34.6933 96.611 34.8477 96.2617C35.0021 95.9123 35.2461 95.61 35.555 95.3853L55.055 81.2067L35.555 67.0323C35.2452 66.8076 35.0004 66.5047 34.8457 66.1547C34.6909 65.8046 34.6317 65.4197 34.6739 65.0393C34.7162 64.6589 34.8585 64.2965 35.0863 63.9889C35.3142 63.6813 35.6194 63.4396 35.971 63.2883L81.419 43.5543C81.6414 43.4562 81.8787 43.3961 82.121 43.3767V43.342C82.1945 43.3354 82.2682 43.3325 82.342 43.3333ZM82.0127 48.0307L41.1753 65.7713L58.6387 78.468L99.71 60.905L82.0127 48.0307ZM123.99 48.1087L107.09 60.3937L148.161 77.9567L164.827 65.845L123.99 48.1087ZM104 63.7867L63.3317 81.1677L74.1173 85.7827L90.9133 92.9587L104 98.5573L144.642 81.172L104 63.7867ZM149.431 83.8457L108.351 101.404L125.987 114.231L166.825 96.4903L149.431 83.8457ZM58.7297 83.9107L41.1753 96.6767L82.0127 114.413L99.7923 101.482L89.2147 96.954L72.4143 89.7693L58.7297 83.9193V83.9107ZM106.167 105.174V156.867L147.333 139.299V109.69L126.577 118.703C126.232 118.852 125.855 118.908 125.482 118.867C125.109 118.826 124.753 118.689 124.449 118.469L106.167 105.174ZM101.833 105.348L83.551 118.642C83.2469 118.864 82.8904 119.002 82.5166 119.044C82.1427 119.086 81.7645 119.029 81.419 118.881L60.6667 109.867V139.291L101.833 156.862V105.348ZM123.392 129.341C123.906 129.313 124.414 129.47 124.823 129.782C125.233 130.095 125.518 130.543 125.627 131.046C125.736 131.55 125.662 132.076 125.418 132.529C125.175 132.983 124.777 133.336 124.297 133.523L112.775 138.446C112.246 138.672 111.649 138.679 111.115 138.465C110.582 138.252 110.154 137.835 109.928 137.306C109.702 136.777 109.694 136.18 109.908 135.646C110.122 135.113 110.539 134.685 111.068 134.459L122.594 129.536C122.838 129.427 123.099 129.364 123.366 129.35C123.374 129.35 123.383 129.35 123.392 129.35V129.341ZM134.91 132.292C135.424 132.264 135.932 132.421 136.341 132.733C136.751 133.046 137.036 133.494 137.145 133.997C137.254 134.501 137.18 135.027 136.936 135.48C136.693 135.934 136.295 136.287 135.815 136.474L124.297 141.401L112.775 146.319C112.511 146.447 112.225 146.52 111.932 146.533C111.64 146.547 111.348 146.501 111.073 146.399C110.799 146.296 110.549 146.139 110.337 145.937C110.125 145.735 109.956 145.493 109.84 145.223C109.725 144.954 109.665 144.665 109.665 144.372C109.664 144.079 109.723 143.789 109.838 143.52C109.953 143.251 110.121 143.007 110.332 142.805C110.543 142.602 110.794 142.445 111.068 142.341L122.594 137.414L134.112 132.487C134.356 132.378 134.617 132.315 134.884 132.301C134.892 132.301 134.901 132.301 134.91 132.301V132.292Z" fill="black"/>
</g>
<defs>
<clipPath id="clip0_378_15379">
<rect width="208" height="208" fill="white"/>
</clipPath>
</defs>
</svg>
