<svg width="46" height="32" viewBox="0 0 46 32" fill="none" xmlns="http://www.w3.org/2000/svg">
<rect x="0.5" y="0.5" width="45" height="31" rx="3.5" fill="white"/>
<rect x="0.5" y="0.5" width="45" height="31" rx="3.5" stroke="#E5E5E5"/>
<path d="M29.1465 11.9209C30.752 11.9209 32.2662 13.4094 32.2754 16.1416C32.2753 19.128 30.7799 20.4844 29.1377 20.4844C28.3303 20.4844 27.844 20.1356 27.5137 19.8906L27.5049 22.5576L25.2109 23.0566V12.0713H27.2295L27.3486 12.6553C27.6697 12.3538 28.2476 11.921 29.1465 11.9209ZM9.57715 11.9209C10.3385 11.9209 11.0912 12.0427 11.8525 12.3535V14.5684C11.1553 14.1821 10.2744 13.9648 9.57715 13.9648C9.09117 13.9649 8.7979 14.1064 8.79785 14.4736C8.79785 15.5288 12.2934 15.0296 12.3027 17.8369C12.3027 19.5233 10.9904 20.4941 9.08203 20.4941C8.29304 20.4941 7.43036 20.3339 6.57715 19.957V17.7148C7.34779 18.1482 8.32055 18.4687 9.08203 18.4688C9.59581 18.4688 9.96289 18.3269 9.96289 17.8936C9.96262 16.7726 6.47668 17.187 6.47656 14.5869C6.47656 12.9194 7.71492 11.921 9.57715 11.9209ZM14.9902 12.0811H16.7334V14.0879H14.9902V17.4316C14.9902 18.8256 16.4393 18.3931 16.7334 18.2705V20.1826C16.4306 20.3522 15.8802 20.4941 15.1279 20.4941C13.7702 20.4941 12.752 19.4666 12.752 18.0723L12.7607 10.5264L15 10.0361L14.9902 12.0811ZM36.1934 11.9209C38.3675 11.9211 39.5048 13.8237 39.5049 16.2354C39.5049 16.4615 39.4863 16.9517 39.4863 17.0742H35C35.101 18.1858 35.8904 18.5059 36.7803 18.5059C37.6885 18.5059 38.4045 18.3086 39.0283 17.9883V19.8721C38.4044 20.2301 37.5781 20.4844 36.4863 20.4844C34.2479 20.4842 32.6885 19.0524 32.6885 16.2168C32.6885 13.8238 34.0098 11.9209 36.1934 11.9209ZM19.5869 12.7783C20.1281 11.761 21.2013 11.968 21.4951 12.0811V14.248C21.2106 14.1444 20.2932 14.012 19.752 14.7373V20.3242H17.459V12.0811H19.4404L19.5869 12.7783ZM24.3574 20.3242H22.0547V12.0811H24.3574V20.3242ZM28.5967 14.0117C28.0738 14.0117 27.7434 14.2005 27.5049 14.4736L27.5137 17.9688C27.7339 18.2137 28.0554 18.4121 28.5967 18.4121C29.4406 18.4119 30.0088 17.4693 30.0088 16.207C30.0087 14.9731 29.4314 14.012 28.5967 14.0117ZM36.1836 13.833C35.6057 13.8331 34.9727 14.2764 34.9727 15.3408H37.3398C37.3398 14.2762 36.7432 13.833 36.1836 13.833ZM24.3574 10.8555L22.0547 11.3643V9.44238L24.3574 8.94336V10.8555Z" fill="#6461FC"/>
</svg>
